<svg fill="none" height="28" viewBox="0 0 33 28" width="33" xmlns="http://www.w3.org/2000/svg"><g fill="#003871"><path d="m20.625 16.4062c0-.2578-.2578-.5156-.5156-.5156h-7.2188c-.3008 0-.5156.2578-.5156.5156v1.2032c0 .3008.2148.5156.5156.5156h7.2188c.2578 0 .5156-.2148.5156-.5156zm-.5156 3.0938h-7.2188c-.3008 0-.5156.2578-.5156.5156v1.2032c0 .3007.2148.5156.5156.5156h7.2188c.2578 0 .5156-.2149.5156-.5156v-1.2032c0-.2578-.2578-.5156-.5156-.5156zm4.6406-8.0781c0-.5157-.2578-1.0742-.6445-1.46096l-3.5664-3.56641c-.3868-.38672-.9453-.64453-1.461-.64453h-8.7656c-1.16016 0-2.0625.94531-2.0625 2.0625v17.875c0 1.1602.90234 2.0625 2.0625 2.0625h12.375c1.1172 0 2.0625-.9023 2.0625-2.0625zm-5.5-3.43752 3.2656 3.26562h-3.2656zm3.4375 17.70312h-12.375v-17.875h6.875v4.4687c0 .6016.4297 1.0313 1.0313 1.0313h4.4687z"/><path d="m0 9.78906c0 .45114.322266.77344.773438.77344h.515622c.38672 0 .77344-.3223.77344-.77344v-7.47656h7.47656c.38672 0 .77344-.32227.77344-.77344v-.51562c0-.386721-.38672-.77344-.77344-.77344h-7.99218c-.902349 0-1.54688.708984-1.54688 1.54688zm23.4609-9.53906c-.4511 0-.7734.386719-.7734.77344v.51562c0 .45117.3223.77344.7734.77344h7.4766v7.47656c0 .45114.3223.77344.7734.77344h.5157c.3867 0 .7734-.3223.7734-.77344v-7.99218c0-.837896-.709-1.54688-1.5469-1.54688zm9.5391 15.2109c0-.3867-.3867-.7734-.7734-.7734h-.5157c-.4511 0-.7734.3867-.7734.7734v7.4766h-7.4766c-.4511 0-.7734.3867-.7734.7734v.5157c0 .4511.3223.7734.7734.7734h7.9922c.8379 0 1.5469-.6445 1.5469-1.5469zm-23.46094 9.5391c.38672 0 .77344-.3223.77344-.7734v-.5157c0-.3867-.38672-.7734-.77344-.7734h-7.47656v-7.4766c0-.3867-.38672-.7734-.77344-.7734h-.515622c-.451172 0-.773438.3867-.773438.7734v7.9922c0 .9024.644531 1.5469 1.54688 1.5469z"/></g></svg>